<svg width="24" height="24" viewBox="0 0 24 24" fill="none" xmlns="http://www.w3.org/2000/svg">
<path d="M13.75 12.4375V8.0625C13.75 7.97135 13.7207 7.89649 13.6621 7.83789C13.6035 7.7793 13.5286 7.75 13.4375 7.75H12.8125C12.7214 7.75 12.6465 7.7793 12.5879 7.83789C12.5293 7.89649 12.5 7.97135 12.5 8.0625V11.5H10.3125C10.2214 11.5 10.1465 11.5293 10.0879 11.5879C10.0293 11.6465 10 11.7214 10 11.8125V12.4375C10 12.5286 10.0293 12.6035 10.0879 12.6621C10.1465 12.7207 10.2214 12.75 10.3125 12.75H13.4375C13.5286 12.75 13.6035 12.7207 13.6621 12.6621C13.7207 12.6035 13.75 12.5286 13.75 12.4375Z" fill="#FF8800"/>
<circle cx="12.5" cy="11.5" r="6.8" stroke="#FF8800" stroke-width="1.4"/>
</svg>
