<svg width="16" height="16" viewBox="0 0 16 16" fill="none" xmlns="http://www.w3.org/2000/svg">
<path d="M8.75348 4.86L13.5495 10.342C14.1155 10.987 13.6555 12 12.7965 12L3.20448 12C3.01223 12.0002 2.82401 11.9449 2.66236 11.8409C2.50071 11.7368 2.37248 11.5884 2.29303 11.4133C2.21357 11.2383 2.18626 11.044 2.21436 10.8538C2.24246 10.6636 2.32479 10.4856 2.45148 10.341L7.24748 4.861C7.34134 4.75359 7.45709 4.6675 7.58697 4.60852C7.71684 4.54954 7.85783 4.51902 8.00048 4.51902C8.14312 4.51902 8.28411 4.54954 8.41399 4.60852C8.54386 4.6675 8.65962 4.75359 8.75348 4.861V4.86Z" fill="#8C8B92"/>
</svg>
