<svg width="24" height="24" viewBox="0 0 24 24" fill="none" xmlns="http://www.w3.org/2000/svg">
<path d="M13.4058 18.0873L14.102 19.1996C18.9221 15.8349 21.5999 11.7472 21.5999 8.3825C21.5999 5.12902 19.297 3.59961 17.3422 3.59961C14.8786 3.59961 13.138 5.76859 13.138 8.04881C13.138 9.96752 14.3162 11.6082 15.8961 12.2199C16.3514 12.3868 16.7798 12.5258 16.7798 13.3322C16.7798 14.3611 16.0568 15.8905 13.4058 18.0873ZM2.7748 18.0873L3.47103 19.1996C8.23756 15.8349 10.9689 11.7472 10.9689 8.3825C10.9689 5.12902 8.61245 3.59961 6.65764 3.59961C4.16727 3.59961 2.3999 5.76859 2.3999 8.04881C2.3999 9.96752 3.60492 11.6082 5.2384 12.2199C5.69363 12.3868 6.0953 12.5258 6.0953 13.3322C6.0953 14.3611 5.34551 15.8905 2.7748 18.0873Z" fill="#FF8800"/>
</svg>
