<svg width="24" height="24" viewBox="0 0 24 24" fill="none" xmlns="http://www.w3.org/2000/svg">
<path d="M10.594 4.71191L9.89781 3.59961C5.07773 6.96432 2.3999 11.052 2.3999 14.4167C2.3999 17.6702 4.70283 19.1996 6.65764 19.1996C9.12124 19.1996 10.8618 17.0306 10.8618 14.7504C10.8618 12.8317 9.68358 11.1911 8.10367 10.5793C7.64844 10.4124 7.21999 10.2734 7.21999 9.46699C7.21999 8.43811 7.943 6.9087 10.594 4.71191ZM21.225 4.71191L20.5288 3.59961C15.7622 6.96432 13.0309 11.052 13.0309 14.4167C13.0309 17.6702 15.3873 19.1996 17.3422 19.1996C19.8325 19.1996 21.5999 17.0306 21.5999 14.7504C21.5999 12.8317 20.3949 11.1911 18.7614 10.5793C18.3062 10.4124 17.9045 10.2734 17.9045 9.46699C17.9045 8.43811 18.6543 6.9087 21.225 4.71191Z" fill="#FF8800"/>
</svg>
