<svg xmlns="http://www.w3.org/2000/svg" width="20" height="20" viewBox="0 0 20 20" fill="none">
  <path d="M17.9168 8.8792L14.5634 11.7647L15.5679 16.0608C15.6211 16.2854 15.6059 16.5204 15.5243 16.7365C15.4427 16.9527 15.2983 17.1403 15.1091 17.2759C14.92 17.4116 14.6945 17.4893 14.4608 17.4992C14.2271 17.5092 13.9956 17.451 13.7953 17.332L9.995 15.0593L6.20291 17.332C6.00257 17.451 5.7711 17.5092 5.53741 17.4992C5.30373 17.4893 5.07821 17.4116 4.88905 17.2759C4.6999 17.1403 4.55549 16.9527 4.4739 16.7365C4.3923 16.5204 4.37713 16.2854 4.43029 16.0608L5.43334 11.7691L2.07919 8.8792C1.90179 8.72835 1.7735 8.5292 1.71043 8.30675C1.64736 8.0843 1.6523 7.84843 1.72465 7.62874C1.79699 7.40905 1.9335 7.2153 2.11708 7.0718C2.30065 6.9283 2.52311 6.84143 2.75656 6.82209L7.1777 6.44454L8.90348 2.38603C8.9936 2.17307 9.14561 1.99117 9.34037 1.86322C9.53514 1.73527 9.76394 1.66699 9.99798 1.66699C10.232 1.66699 10.4608 1.73527 10.6556 1.86322C10.8503 1.99117 11.0024 2.17307 11.0925 2.38603L12.8235 6.44454L17.2431 6.82209C17.4766 6.84143 17.699 6.9283 17.8826 7.0718C18.0662 7.2153 18.2027 7.40905 18.275 7.62874C18.3474 7.84843 18.3523 8.0843 18.2892 8.30675C18.2262 8.5292 18.0979 8.72835 17.9205 8.8792H17.9168Z" fill="#FFB923"/>
</svg>